# xmcd
#
# Track frame offsets:
#	150
#	13070
#	32094
#	49362
#	64757
#	73905
#	85457
#	98805
#	117467
#	131087
#	147747
#	168145
#	186257
#
# Disc length: 2690
#
# Revision: 2
# Processed by: cddbd v1.5.1PL0 Copyright (c) Steve Scherf et al.
# Submitted via: audiograbber 1.82.02
# Normalized: r1:DSETVAR1,TSWAP
#
DISCID=c70a800d
DTITLE=Various Artist - Country Original Artists - Original Hits [CD2]
DYEAR=1900
DGENRE=
TTITLE0=The Lord Knows I'm Drinking - Cal Smith
TTITLE1=Nanci Griffith - From A Distance
TTITLE2=Marty Stuart - Love And Luck
TTITLE3=Mark Collie - Trouble's Coming Like A Train
TTITLE4=Patsy Cline - Walking After Midnight
TTITLE5=Kitty Wells - It Wasn't God Who Made Honky Tonk Angels
TTITLE6=Kelly Willis - Get Real
TTITLE7=Rodney Crowell - Let The Picture Paint Itself
TTITLE8=David Lee Murphy - Just Once
TTITLE9=Waylon Jennings - Rose In Paradise
TTITLE10=Everything About You - Frazier River Band
TTITLE11=Rhett Akins - That Ain't My Truck
TTITLE12=Helen Darling - I Haven't Found It Yet
EXTD=
EXTT0=
EXTT1=
EXTT2=
EXTT3=
EXTT4=
EXTT5=
EXTT6=
EXTT7=
EXTT8=
EXTT9=
EXTT10=
EXTT11=
EXTT12=
PLAYORDER=
